<?xml version="1.0" encoding="UTF-8" standalone="no"?>
<!-- Created with Inkscape (http://www.inkscape.org/) -->

<svg
   xmlns:dc="http://purl.org/dc/elements/1.1/"
   xmlns:cc="http://creativecommons.org/ns#"
   xmlns:rdf="http://www.w3.org/1999/02/22-rdf-syntax-ns#"
   xmlns:svg="http://www.w3.org/2000/svg"
   xmlns="http://www.w3.org/2000/svg"
   xmlns:sodipodi="http://sodipodi.sourceforge.net/DTD/sodipodi-0.dtd"
   xmlns:inkscape="http://www.inkscape.org/namespaces/inkscape"
   width="48"
   height="48"
   viewBox="0 0 12.7 12.7"
   version="1.1"
   id="svg8"
   inkscape:version="0.92.4 (5da689c313, 2019-01-14)"
   sodipodi:docname="airBnB.svg">
  <defs
     id="defs2" />
  <sodipodi:namedview
     id="base"
     pagecolor="#ffffff"
     bordercolor="#666666"
     borderopacity="1.0"
     inkscape:pageopacity="0.0"
     inkscape:pageshadow="2"
     inkscape:zoom="7.9195959"
     inkscape:cx="19.961402"
     inkscape:cy="25.434466"
     inkscape:document-units="mm"
     inkscape:current-layer="layer1"
     showgrid="false"
     units="px"
     inkscape:window-width="1097"
     inkscape:window-height="1048"
     inkscape:window-x="-7"
     inkscape:window-y="0"
     inkscape:window-maximized="0" />
  <metadata
     id="metadata5">
    <rdf:RDF>
      <cc:Work
         rdf:about="">
        <dc:format>image/svg+xml</dc:format>
        <dc:type
           rdf:resource="http://purl.org/dc/dcmitype/StillImage" />
        <dc:title />
      </cc:Work>
    </rdf:RDF>
  </metadata>
  <g
     inkscape:label="Layer 1"
     inkscape:groupmode="layer"
     id="layer1"
     transform="translate(0,-284.29998)">
    <rect
       style="fill:#fffffc;fill-opacity:1;stroke:none;stroke-width:0.26340741"
       id="rect4548"
       width="12.7"
       height="12.7"
       x="6.9388939e-18"
       y="300.17496" />
    <path
       style="opacity:0.65;fill:#000000;fill-opacity:1;stroke:#000000;stroke-width:0.25231224px;stroke-linecap:butt;stroke-linejoin:miter;stroke-opacity:1"
       d="m 0.76939324,290.27113 -0.0675836,6.3078 1.14892166,0.0225 v -0.85606 h 9.2139027 l 0.04506,0.76595 0.923643,0.0225 0.09011,-4.61821 -1.058811,0.045 -0.05202,2.77332 -9.0714289,-0.0709 0.089768,-4.39208 z"
       id="path1433"
       inkscape:connector-curvature="0"
       sodipodi:nodetypes="ccccccccccccc" />
    <path
       style="opacity:0.65;fill:#fff8f8;stroke:#000000;stroke-width:0.24328847px;stroke-linecap:butt;stroke-linejoin:miter;stroke-opacity:1;fill-opacity:1"
       d="m 2.3753874,294.51725 c 0,0 -0.053983,-0.79697 0.2162337,-1.20006 0.3181779,-0.26677 0.5989673,-0.25962 0.864955,-0.14404 0.499987,0.18422 0.5075084,0.81941 0.6094001,1.36818 z"
       id="path1435"
       inkscape:connector-curvature="0"
       sodipodi:nodetypes="ccccc" />
    <path
       style="opacity:0.65;fill:#ffffff;stroke:#000000;stroke-width:0.25620905px;stroke-linecap:butt;stroke-linejoin:miter;stroke-opacity:1;fill-opacity:1"
       d="m 4.166202,294.54133 c 0.180321,-0.53032 0.2467415,-1.14868 0.8136528,-1.38018 l 2.903111,0.17872 1.9568143,-0.20257 c 0.5844209,0.30718 0.6800019,0.90645 0.8796319,1.45158 z"
       id="path1437"
       inkscape:connector-curvature="0"
       sodipodi:nodetypes="cccccc" />
    <path
       style="fill:none;fill-opacity:1;stroke:#ff6a6a;stroke-width:0.92084914;stroke-linecap:butt;stroke-linejoin:miter;stroke-miterlimit:4;stroke-dasharray:none;stroke-opacity:1"
       d="m 6.7731472,285.13468 c -1.2692635,0.0523 -5.6972808,5.11563 -5.3977933,7.27927 0.1788464,1.29206 5.7820628,-2.38458 6.1523237,-2.94082 0.5430288,-0.81581 -0.2824507,-1.34004 -0.8415915,-1.3394 -0.7086304,8.1e-4 -1.5158598,0.72053 -1.0157138,1.3394 0.5277919,0.65309 5.3090807,4.10872 5.7750577,3.11553 0.549679,-1.1716 -3.5478829,-7.50029 -4.6722828,-7.45398 z"
       id="path1759"
       inkscape:connector-curvature="0"
       sodipodi:nodetypes="sssssss" />
  </g>
</svg>
