<?xml version="1.0" encoding="UTF-8" standalone="no"?>
<!-- Created with Inkscape (http://www.inkscape.org/) -->

<svg
   xmlns:dc="http://purl.org/dc/elements/1.1/"
   xmlns:cc="http://creativecommons.org/ns#"
   xmlns:rdf="http://www.w3.org/1999/02/22-rdf-syntax-ns#"
   xmlns:svg="http://www.w3.org/2000/svg"
   xmlns="http://www.w3.org/2000/svg"
   xmlns:sodipodi="http://sodipodi.sourceforge.net/DTD/sodipodi-0.dtd"
   xmlns:inkscape="http://www.inkscape.org/namespaces/inkscape"
   width="32mm"
   height="32mm"
   version="1.1"
   viewBox="0 0 32 32"
   id="svg959"
   sodipodi:docname="SleepInns-Opt.svg"
   inkscape:version="0.92.4 (5da689c313, 2019-01-14)">
  <defs
     id="defs963">
    <clipPath
       clipPathUnits="userSpaceOnUse"
       id="clipPath5243">
      <g
         id="use5245"
         inkscape:label="Clip">
        <path
           style="stroke-width:0.3361302"
           inkscape:connector-curvature="0"
           d="m 5.5721186,19.31864 q 0.00597,0.187712 -0.2328197,0.909672 -0.119393,0.360985 -0.1850619,0.59924 -0.065666,0.231031 -0.077608,0.339327 -0.119393,0.859141 -0.2328197,1.84825 -0.1074543,0.98911 -0.2089393,2.137021 -0.035819,0.310447 -0.059697,0.541463 -0.02388,0.223812 -0.041789,0.368205 -0.011939,0.144393 -0.02985,0.31767 -0.017908,0.166054 -0.02985,0.368204 -0.011939,0.202154 -0.017908,0.368205 0,0.166054 0.00597,0.310447 0,0.08664 0.077608,0.259908 0.071638,0.158835 0.077608,0.274351 0.011939,0.259908 -0.2925162,0.505385 -0.1492428,0.122735 -0.2805776,0.180492 -0.1253654,0.06498 -0.2387891,0.07942 -0.1731232,0 -0.2746081,-0.101077 -0.1134233,-0.144397 -0.1910309,-0.36099 -0.077608,-0.216592 -0.083577,-0.368204 -0.017908,-0.454854 -0.011939,-0.909671 0.011939,-0.454855 0.059697,-0.924125 0.047758,-0.462063 0.1134237,-1.046849 0.071638,-0.584787 0.1731232,-1.299542 0.077608,-0.490932 0.1432734,-0.924125 0.071638,-0.440401 0.1373041,-0.83027 0.065666,-0.397079 0.1492428,-0.888011 0.083577,-0.498177 0.1850619,-1.111833 0.02985,-0.216593 0.053727,-0.368205 0.02388,-0.151615 0.041788,-0.23825 0.011939,-0.101077 0.035819,-0.267131 0.02985,-0.166055 0.071638,-0.41874 0.00597,-0.08664 0.041789,-0.194931 0.041788,-0.115516 0.095516,-0.216593 0.059696,-0.101077 0.1253654,-0.173273 0.071638,-0.07942 0.1373041,-0.07942 0.119393,-0.0072 0.2626695,0.0722 0.1492428,0.0722 0.238789,0.194932 0.119393,0.144392 0.1790926,0.310446 0.059696,0.158835 0.071638,0.339328 0.00597,0.115516 0.00597,0.202154 0,0.08664 0.00597,0.194931 z"
           id="path5247" />
        <path
           style="stroke-width:0.3361302"
           inkscape:connector-curvature="0"
           d="m 17.46985,23.159304 q 0,0.27435 -0.101485,0.555917 -0.101485,0.281569 -0.23282,0.527047 -0.167154,0.303227 -0.399973,0.685885 -0.23282,0.375417 -0.519361,0.765286 -0.280577,0.38987 -0.608916,0.765287 -0.322369,0.368205 -0.674569,0.656979 -0.346241,0.288789 -0.710392,0.469271 -0.364151,0.173273 -0.722342,0.173273 -0.388023,0 -0.638747,-0.194931 -0.244759,-0.194931 -0.405934,-0.512594 -0.155213,-0.31767 -0.244759,-0.721963 -0.08358,-0.411532 -0.155212,-0.837479 -0.08358,-0.519802 -0.167154,-0.880803 -0.07761,-0.360985 -0.167154,-0.584786 -0.08358,-0.231031 -0.179092,-0.332108 -0.09552,-0.101077 -0.20297,-0.101077 -0.208939,0 -0.435796,0.223812 -0.22685,0.223812 -0.477578,0.606448 -0.250728,0.375416 -0.5313114,0.866385 -0.2746082,0.490932 -0.5790539,1.01798 -0.185062,0.317669 -0.3820625,0.613692 -0.1970006,0.296009 -0.3880226,0.541464 -0.185062,0.245469 -0.3522006,0.425947 -0.167154,0.173273 -0.2925162,0.252689 -0.1313347,-0.0361 -0.2328198,-0.09386 -0.1014849,-0.06498 -0.1671537,-0.194931 -0.065666,-0.137173 -0.1014849,-0.360985 -0.035819,-0.223812 -0.035819,-0.584786 0,-0.274351 0.023881,-0.678641 0.02985,-0.404323 0.071638,-0.837479 0.047758,-0.440401 0.095516,-0.851932 0.053727,-0.41874 0.1074544,-0.714755 0.035819,-0.194932 0.053727,-0.38987 0.023881,-0.194931 0.041789,-0.360986 0.023881,-0.173273 0.041789,-0.303227 0.023881,-0.137174 0.059696,-0.223812 0.1193933,-0.296009 0.2387891,-0.476516 0.119393,-0.187712 0.2746082,-0.187712 0.047758,0 0.1253654,0.01444 0.083577,0.01444 0.1552122,0.06498 0.077608,0.04332 0.1313347,0.129954 0.059697,0.08664 0.059697,0.223812 0,0.346547 -0.095516,0.801401 -0.095516,0.454855 -0.1910312,0.931333 -0.035819,0.194932 -0.089546,0.44761 -0.053727,0.24547 -0.1014849,0.505385 -0.041789,0.259909 -0.077608,0.512594 -0.02985,0.24547 -0.02985,0.433193 0,0.02888 -0.00597,0.09386 0,0.06498 -0.00597,0.137173 0,0.0722 0,0.137173 0,0.06498 0.011938,0.101078 0.1970027,-0.166054 0.4178869,-0.519802 0.220881,-0.353766 0.4417557,-0.765286 0.2268506,-0.41874 0.441756,-0.830271 0.2149086,-0.41874 0.4059338,-0.707547 0.1970003,-0.310447 0.3701113,-0.548709 0.173124,-0.23825 0.358192,-0.397078 0.185061,-0.166054 0.394013,-0.245469 0.214909,-0.08664 0.495489,-0.08664 0.310418,0 0.5134,0.194931 0.20894,0.187712 0.340281,0.498177 0.137304,0.310447 0.214908,0.714755 0.07761,0.404309 0.131335,0.823063 0.0597,0.447609 0.125366,0.823063 0.06567,0.368204 0.173123,0.635354 0.113423,0.259909 0.280577,0.411531 0.167154,0.144393 0.429805,0.144393 0.358191,0 0.698472,-0.23825 0.34624,-0.238251 0.758164,-0.693094 0.686521,-0.750833 1.170059,-1.42951 0.489529,-0.678641 0.895463,-1.22735 0.01791,0.0361 0.08358,0.06498 0.07164,0.02888 0.07164,0.122735 z"
           id="path5249" />
        <path
           style="stroke-width:0.3361302"
           inkscape:connector-curvature="0"
           d="m 26.75886,23.484226 q 0,0.137174 -0.04179,0.28157 -0.03582,0.137173 -0.09551,0.28157 -0.05373,0.137173 -0.125366,0.27435 -0.07164,0.129955 -0.137304,0.252689 -0.173123,0.324889 -0.405933,0.664224 -0.23282,0.332109 -0.50145,0.649771 -0.262669,0.31767 -0.543231,0.59924 -0.280578,0.28157 -0.549223,0.498177 -0.214909,0.173274 -0.411925,0.324889 -0.191031,0.151616 -0.388022,0.259908 -0.197001,0.108297 -0.411925,0.173274 -0.214908,0.06498 -0.471618,0.06498 -0.495489,0 -0.805907,-0.303228 -0.155216,-0.151615 -0.274612,-0.389869 -0.113424,-0.24547 -0.20297,-0.541464 -0.08358,-0.296008 -0.149243,-0.628109 -0.0597,-0.332108 -0.101485,-0.656979 -0.05373,-0.404323 -0.101485,-0.721963 -0.04776,-0.324889 -0.113425,-0.541464 -0.0597,-0.223812 -0.149242,-0.339327 -0.08955,-0.122735 -0.23282,-0.122735 -0.113424,0 -0.214908,0.02888 -0.101486,0.02888 -0.214909,0.115515 -0.107454,0.08664 -0.238789,0.24547 -0.131335,0.158835 -0.310418,0.41874 -0.173124,0.259908 -0.399974,0.635354 -0.22685,0.375417 -0.531311,0.895255 -0.149243,0.252689 -0.352201,0.555917 -0.20297,0.303228 -0.417885,0.577578 -0.208939,0.274351 -0.411924,0.483724 -0.20297,0.209374 -0.358191,0.267131 -0.525351,-0.137173 -0.525351,-1.581103 0,-0.382662 0.07164,-1.162365 0.03582,-0.353766 0.08358,-0.736417 0.04776,-0.38987 0.119393,-0.772494 0.07164,-0.38987 0.161181,-0.750833 0.09552,-0.368205 0.220881,-0.678641 0.0597,-0.144392 0.125366,-0.223812 0.06566,-0.08664 0.131335,-0.122735 0.07164,-0.04332 0.143273,-0.05054 0.07761,-0.01444 0.155212,-0.01444 0.09552,0 0.167154,0.158835 0.07761,0.158835 0.07761,0.440401 0,0.173274 -0.02388,0.324889 -0.02388,0.151616 -0.06567,0.310447 -0.04179,0.158835 -0.08955,0.346547 -0.04776,0.180493 -0.09552,0.418739 -0.03582,0.194932 -0.08358,0.433193 -0.04179,0.238251 -0.08358,0.483724 -0.03582,0.24547 -0.06567,0.483724 -0.02388,0.231032 -0.02388,0.41874 0,0.129954 0.03582,0.267131 0.167153,-0.02166 0.549222,-0.606448 0.197001,-0.296008 0.429805,-0.64977 0.238789,-0.353767 0.513401,-0.77974 0.202969,-0.31767 0.399973,-0.592032 0.20297,-0.27435 0.417885,-0.476515 0.214908,-0.209374 0.453707,-0.324889 0.244758,-0.122735 0.537271,-0.122735 0.310419,0 0.513401,0.166054 0.20894,0.158835 0.33432,0.447609 0.125366,0.28157 0.191032,0.67864 0.07164,0.397078 0.113423,0.873594 0.03582,0.404323 0.06567,0.801401 0.03582,0.397078 0.131335,0.714756 0.09552,0.310446 0.274608,0.505385 0.179092,0.194931 0.5134,0.194931 0.256697,0 0.537272,-0.144392 0.280577,-0.144393 0.591005,-0.397078 0.310418,-0.259909 0.638747,-0.606448 0.33432,-0.346547 0.686521,-0.758078 0.137303,-0.158835 0.298485,-0.397078 0.167154,-0.24547 0.322369,-0.469271 0.161182,-0.223812 0.298486,-0.382662 0.137304,-0.158835 0.220881,-0.158835 0.03582,0 0.113423,0.04332 0.08358,0.04332 0.08358,0.144393 z"
           id="path5251" />
        <path
           style="stroke-width:0.3361302"
           inkscape:connector-curvature="0"
           d="m 29.164631,27.079812 q 0,0.368204 -0.107454,0.721963 -0.107455,0.346547 -0.292516,0.656979 -0.179093,0.310447 -0.417885,0.57037 -0.23282,0.267131 -0.489529,0.454854 -0.250728,0.194931 -0.50744,0.296008 -0.256697,0.108297 -0.471618,0.108297 -0.298486,0 -0.394014,-0.158835 -0.09551,-0.158835 -0.09551,-0.447609 0,-0.267132 0.08358,-0.411532 0.08358,-0.137173 0.238789,-0.23825 0.01791,-0.0072 0.06567,-0.01444 0.04776,-0.01444 0.101485,-0.01444 0.0597,-0.0072 0.113424,-0.0072 0.0597,-0.0072 0.09552,-0.0072 0.04179,0 0.119393,-0.02166 0.07761,-0.02166 0.167154,-0.05776 0.08955,-0.04332 0.185061,-0.101077 0.09552,-0.06498 0.179093,-0.144393 0.238789,-0.231031 0.33432,-0.512593 0.101485,-0.288789 0.101485,-0.512594 0,-0.281569 -0.149243,-0.527047 -0.149262,-0.245498 -0.376119,-0.476545 -0.22685,-0.23825 -0.489529,-0.46927 -0.262666,-0.238251 -0.489529,-0.498177 -0.226851,-0.267132 -0.376102,-0.563125 -0.149243,-0.296009 -0.149243,-0.656979 0,-0.180493 0.03582,-0.382662 0.04179,-0.202154 0.101485,-0.397078 0.06567,-0.194931 0.143273,-0.375416 0.08358,-0.187713 0.173123,-0.339328 0.143274,-0.24547 0.310419,-0.483724 0.173123,-0.238251 0.34624,-0.41874 0.173123,-0.187712 0.34028,-0.296008 0.167151,-0.115516 0.310418,-0.115516 0.405934,0 0.405934,0.577578 0,0.202155 -0.137304,0.469271 -0.131335,0.267132 -0.316409,0.490933 -0.286547,0.332108 -0.501449,0.570369 -0.214912,0.231032 -0.399974,0.476516 0.137304,0.24547 0.298486,0.447609 0.161184,0.202155 0.334319,0.38987 0.179093,0.187712 0.358192,0.368205 0.185062,0.180492 0.364151,0.375416 0.167151,0.187712 0.316409,0.382662 0.155212,0.187712 0.274608,0.397078 0.119393,0.202154 0.191031,0.425948 0.07164,0.223812 0.07164,0.469271 z"
           id="path5253" />
      </g>
    </clipPath>
  </defs>
  <sodipodi:namedview
     pagecolor="#ffffff"
     bordercolor="#666666"
     borderopacity="1"
     objecttolerance="10"
     gridtolerance="10"
     guidetolerance="10"
     inkscape:pageopacity="0"
     inkscape:pageshadow="2"
     inkscape:window-width="924"
     inkscape:window-height="1048"
     id="namedview961"
     showgrid="false"
     inkscape:zoom="2.7595579"
     inkscape:cx="60.597769"
     inkscape:cy="23.450857"
     inkscape:window-x="918"
     inkscape:window-y="0"
     inkscape:window-maximized="1"
     inkscape:current-layer="svg959" />
  <metadata
     id="metadata935">
    <rdf:RDF>
      <cc:Work
         rdf:about="">
        <dc:format>image/svg+xml</dc:format>
        <dc:type
           rdf:resource="http://purl.org/dc/dcmitype/StillImage" />
        <dc:title />
      </cc:Work>
    </rdf:RDF>
  </metadata>
  <g
     transform="translate(0,-261.93188)"
     id="g957"
     style="fill:#ffffff">
    <g
       transform="matrix(0.30565,0,0,0.36965,-0.92628,261.87)"
       aria-label="Sleep  Inns"
       id="g955"
       style="fill:#ffffff">
      <path
         d="m 26.273,15.19 q 0,0.25391 -0.05859,0.625 -0.05859,0.37109 -0.17578,0.76172 -0.09766,0.37109 -0.25391,0.72266 -0.13672,0.33203 -0.3125,0.52734 -0.46875,0.56641 -1.6797,0.56641 0,-1.3281 -0.37109,-2.207 -0.17578,-0.41016 -0.64453,-0.68359 -0.44922,-0.29297 -1.0156,-0.48828 -0.56641,-0.19531 -1.1523,-0.27344 -0.56641,-0.09766 -0.97656,-0.09766 -0.9375,0 -1.8164,0.03906 -0.85938,0.03906 -1.6992,0.17578 -0.82031,0.11719 -1.6797,0.35156 -0.83984,0.21484 -1.7578,0.58594 -0.70312,0.29297 -1.4648,0.70312 -0.76172,0.39062 -1.4063,0.89844 -0.64453,0.50781 -1.1133,1.1133 -0.46875,0.60547 -0.58594,1.3281 -0.039063,0.54688 0.33203,1.25 0.37109,0.70312 0.99609,1.3672 0.64453,0.66406 1.4648,1.2109 0.83984,0.54688 1.7383,0.80078 0.15625,0.05859 0.72266,0.25391 0.56641,0.19531 1.2109,0.41016 0.66406,0.21484 1.2109,0.41016 0.56641,0.17578 0.72266,0.21484 4.4141,1.1328 6.543,2.6953 2.1484,1.543 2.1484,3.7891 0,0.72266 -0.33203,1.4453 -0.3125,0.70312 -0.80078,1.3672 -0.48828,0.64453 -1.0547,1.1914 -0.56641,0.54688 -1.0547,0.91797 -0.56641,0.44922 -1.2891,0.9375 -0.72266,0.46875 -1.543,0.91797 -0.82031,0.44922 -1.6992,0.83984 -0.87889,0.39062 -1.7773,0.68359 -0.87891,0.29297 -1.8555,0.52734 -0.95703,0.25391 -1.9141,0.42969 -0.9375,0.17578 -1.8164,0.27344 -0.85938,0.11719 -1.543,0.11719 -0.50781,0 -1.3281,-0.15625 -0.80078,-0.13672 -1.582,-0.41016 -0.78125,-0.25391 -1.3477,-0.625 -0.54687,-0.35156 -0.54687,-0.76172 0,-0.25391 0.058594,-0.625 0.078125,-0.37109 0.19531,-0.72266 0.13672,-0.35156 0.29297,-0.58594 0.17578,-0.25391 0.39062,-0.25391 0.39062,0 0.80078,0.13672 0.42969,0.11719 0.99609,0.27344 0.58594,0.15625 1.3672,0.29297 0.80078,0.11719 1.9336,0.11719 1.1719,0 2.4219,-0.23438 1.2695,-0.25391 2.4805,-0.66406 1.2109,-0.41016 2.3047,-0.9375 1.1133,-0.52734 1.9922,-1.0938 0.41016,-0.27344 0.89844,-0.625 0.50781,-0.37109 0.9375,-0.80078 0.42969,-0.42969 0.72266,-0.91797 0.29297,-0.48828 0.29297,-1.0156 0,-0.74219 -1.0938,-1.4258 -1.0742,-0.66406 -2.207,-1.0352 -1.1133,-0.37109 -1.9922,-0.58594 -1.0742,-0.27344 -2.4219,-0.72266 -1.3281,-0.44922 -2.9297,-1.0742 -2.6562,-1.0156 -4.4922,-2.9688 -1.836,-1.9532 -1.8359,-4.707 -0.039063,-1.2891 0.78125,-2.4805 0.83984,-1.1914 2.2461,-2.207 1.4063,-1.0156 3.2031,-1.7969 1.8164,-0.80078 3.7305,-1.25 0.39062,-0.07813 0.9375,-0.17578 0.56641,-0.09766 1.1523,-0.15625 0.60547,-0.07813 1.1523,-0.11719 0.56641,-0.05859 0.95703,-0.05859 0.46875,0 1.1719,0.07813 0.72266,0.05859 1.4648,0.17578 0.76172,0.11719 1.4258,0.29297 0.68359,0.17578 1.0938,0.41016 0.99609,0.52734 1.5625,1.2695 0.56641,0.74219 0.56641,1.4453 z"
         id="path937"
         inkscape:connector-curvature="0"
         style="fill:#ffffff" />
      <path
         d="m 48.48,31.753 q 0,0.17578 -0.27344,0.52734 -0.25391,0.35156 -0.68359,0.78125 -0.42969,0.42969 -0.97656,0.89844 -0.54687,0.46875 -1.0938,0.87891 -2.9688,2.2656 -5.2344,3.418 -2.2461,1.1328 -4.0234,1.1328 -0.78125,0 -1.6211,-0.35156 -0.82031,-0.37109 -1.5039,-1.2305 -0.68359,-0.87891 -1.1328,-2.3047 -0.42969,-1.4453 -0.42969,-3.6133 0,-0.87891 0.07813,-1.9727 0.07813,-1.09379 0.19531,-2.2852 0.13672,-1.1914 0.29297,-2.4219 0.15625,-1.25 0.33203,-2.4414 0.17578,-1.1914 0.35156,-2.2461 0.17578,-1.0742 0.33203,-1.9336 0.13672,-0.72266 0.29297,-1.5039 0.17578,-0.78125 0.35156,-1.543 0.17578,-0.78125 0.33203,-1.4648 0.17578,-0.70312 0.33203,-1.25 0.15625,-0.50781 0.42969,-1.0938 0.27344,-0.60547 0.625,-1.1133 0.35156,-0.52734 0.74219,-0.85938 0.41016,-0.35156 0.82031,-0.35156 0.44922,0 0.72266,0.11719 0.27344,0.11719 0.42969,0.35156 0.15625,0.21484 0.19531,0.50781 0.05859,0.29297 0.05859,0.64453 0,0.80078 -0.3125,2.1289 -0.3125,1.3086 -0.76172,2.793 -0.42969,1.4844 -0.87891,2.9883 -0.44922,1.5039 -0.74219,2.6758 -0.09766,0.44922 -0.21484,1.1328 -0.11719,0.68359 -0.21484,1.5234 -0.09766,0.82031 -0.19531,1.7578 -0.07813,0.91797 -0.15625,1.8359 -0.05859,0.91797 -0.09766,1.7969 -0.03906,0.87891 -0.03906,1.6211 0,1.5625 0.23438,2.5391 0.25391,0.95703 0.64453,1.5039 0.39062,0.54687 0.87891,0.74219 0.48828,0.17578 0.97656,0.17578 0.80078,0 1.6602,-0.25391 0.85938,-0.25391 1.8359,-0.78125 0.99609,-0.52734 2.1484,-1.3086 1.1523,-0.80078 2.5391,-1.875 0.37109,-0.29297 0.66406,-0.56641 0.3125,-0.27344 0.54688,-0.48828 0.23438,-0.23438 0.42969,-0.35156 0.19531,-0.13672 0.37109,-0.13672 0.27344,0 0.50781,0.27344 0.23438,0.27344 0.23438,0.99609 z"
         id="path939"
         inkscape:connector-curvature="0"
         style="fill:#ffffff" />
      <path
         d="m 66.098,32.944 q -1.5234,1.1914 -3.2617,2.2656 -1.7383,1.0742 -3.4961,1.8945 -1.7578,0.82031 -3.4375,1.3086 -1.6797,0.46875 -3.0859,0.46875 -1.582,0 -2.8125,-0.44922 -1.2305,-0.46875 -2.0898,-1.4453 -0.85938,-0.97656 -1.3086,-2.4805 -0.44922,-1.5234 -0.44922,-3.6328 0,-1.9336 0.35156,-3.6523 0.35156,-1.7383 0.95703,-3.2031 0.625,-1.4648 1.4258,-2.6367 0.82031,-1.1914 1.7383,-2.0117 0.9375,-0.82031 1.9141,-1.25 0.97656,-0.44922 1.9141,-0.44922 0.93754,0 1.6211,0.27344 0.70312,0.25391 1.1523,0.72266 0.46875,0.46875 0.70312,1.1133 0.23437,0.64455 0.23438,1.4062 0,0.50781 -0.21484,1.2109 -0.19531,0.70312 -0.74219,1.6211 -0.54688,0.91798 -1.5039,2.0703 -0.95703,1.1328 -2.4609,2.5 -0.42969,0.39062 -0.9375,0.80078 -0.48828,0.41016 -1.0156,0.80078 -0.52734,0.39062 -1.0352,0.74219 -0.50781,0.35156 -0.9375,0.60547 0.03906,0.97656 0.29297,1.7969 0.25391,0.82031 0.80078,1.4062 0.54688,0.58594 1.4258,0.91797 0.87891,0.3125 2.168,0.3125 1.3672,0 2.9102,-0.46875 1.543,-0.48828 3.1055,-1.2109 1.5625,-0.74219 3.0469,-1.6211 1.4844,-0.87891 2.7344,-1.6992 0.09766,-0.05859 0.23438,-0.13672 0.15625,-0.09766 0.21484,-0.09766 0.17578,0 0.3125,0.21484 0.15625,0.21484 0.15625,0.58594 0,0.11719 -0.07813,0.33203 -0.05859,0.21484 -0.15625,0.44922 -0.09766,0.21484 -0.21484,0.39062 -0.09766,0.17578 -0.17578,0.23438 z M 55.121,21.928 q 0,-0.68359 -0.37109,-1.0742 -0.37109,-0.41016 -0.9375,-0.41016 -0.19531,0.01953 -0.48828,0.15625 -0.27344,0.11719 -0.58594,0.33203 -0.3125,0.19531 -0.60547,0.46875 -0.29297,0.27344 -0.48828,0.56641 -0.95703,1.3672 -1.5625,3.0664 -0.58594,1.6797 -0.78125,4.0234 1.543,-1.1719 2.6367,-2.168 1.1133,-1.0156 1.8164,-1.8945 0.70312,-0.87891 1.0352,-1.6211 0.33203,-0.76172 0.33203,-1.4453 z"
         id="path941"
         inkscape:connector-curvature="0"
         style="fill:#ffffff" />
      <path
         d="m 89.086,25.269 q 0,0.3125 -0.42969,1.0352 -0.78125,1.25 -1.9531,2.6953 -1.1523,1.4453 -2.5781,2.9102 -1.4062,1.4453 -3.0078,2.793 -1.582,1.3477 -3.2227,2.3828 -1.6406,1.0156 -3.2422,1.6406 -1.6016,0.625 -3.0469,0.625 h -0.13672 q -3.3398,0 -5,-1.9141 -1.6602,-1.9141 -1.6602,-5.332 0,-1.3672 0.21484,-2.8906 0.21484,-1.5234 0.74219,-3.0859 0.54688,-1.582 1.4648,-3.1445 0.9375,-1.582 2.3633,-3.0469 1.0742,-1.0742 2.2656,-1.6406 1.1914,-0.58594 2.2461,-0.58594 0.15625,0 0.41016,0.07813 0.25391,0.07813 0.50781,0.21484 0.27344,0.11719 0.50781,0.3125 0.25391,0.17578 0.42969,0.39062 0.54688,0.70312 0.80078,1.3477 0.25391,0.64453 0.25391,1.5039 0,1.1328 -0.3125,2.0703 -0.3125,0.91797 -0.89844,1.7969 -0.58594,0.87891 -1.4453,1.7773 -0.85938,0.87891 -1.9727,1.9141 -0.37109,0.35156 -0.87891,0.78125 -0.50781,0.42969 -1.0938,0.89844 -0.58594,0.46875 -1.2109,0.97656 -0.625,0.50781 -1.2305,0.99609 0.15625,3.4961 3.8867,3.4961 2.0703,0 4.4141,-1.0938 1.1523,-0.54688 2.1484,-1.25 0.99609,-0.72266 1.9531,-1.4648 0.46875,-0.37109 1.0352,-0.87891 0.56641,-0.50781 1.1523,-1.0742 0.60547,-0.56641 1.1914,-1.1328 0.60547,-0.56641 1.1328,-1.0742 0.33203,-0.33203 0.70312,-0.70312 0.39062,-0.37109 0.82031,-0.80078 l 1.0547,-1.0547 q 0.95703,-0.83984 1.3867,-0.83984 0.23438,0 0.23438,0.37109 z M 74.047,22.3393 q 0,-0.58594 -0.3125,-1.0156 -0.3125,-0.44922 -0.76172,-0.44922 -0.33203,0 -0.85938,0.27344 -0.50781,0.27344 -1.0938,0.97656 -1.1914,1.4453 -2.0312,3.4961 -0.83984,2.0312 -1.1719,4.5312 1.2305,-0.99609 2.0703,-1.7773 0.85938,-0.78125 1.543,-1.4648 0.46875,-0.46875 0.91797,-0.99609 0.46875,-0.52734 0.83984,-1.1133 0.39062,-0.58594 0.625,-1.2109 0.23438,-0.62496 0.23438,-1.25 z"
         id="path943"
         inkscape:connector-curvature="0"
         style="fill:#ffffff" />
      <path
         d="m 107.17,23.569 q 0,2.1094 -0.48829,3.9258 -0.48828,1.8164 -1.4062,3.4375 -0.91796,1.6016 -2.2656,3.0664 -1.3477,1.4453 -3.0469,2.8711 -0.64453,0.52734 -1.4648,1.0352 -0.80078,0.50781 -1.6797,0.89844 -0.87891,0.39062 -1.7773,0.64453 -0.87891,0.23438 -1.6602,0.23438 -0.56641,0 -0.91797,-0.11719 -0.35156,-0.13672 -0.625,-0.37109 -0.25391,-0.23438 -0.48828,-0.54688 -0.23438,-0.33203 -0.54688,-0.72266 -0.44922,1.3281 -0.72266,2.2266 -0.27344,0.89844 -0.44922,1.6016 -0.17578,0.70312 -0.27344,1.3281 -0.09766,0.64453 -0.19531,1.4453 -0.09766,0.80078 -0.25391,1.8945 -0.13672,1.1133 -0.39062,2.7344 -0.03906,0.3125 -0.21484,0.72266 -0.17578,0.41016 -0.42969,0.78125 -0.23438,0.37109 -0.52734,0.625 -0.27344,0.25391 -0.52734,0.25391 -0.27344,0 -0.66406,-0.17578 -0.39062,-0.15625 -0.74219,-0.41016 -0.35156,-0.23438 -0.60547,-0.48828 -0.25391,-0.25391 -0.25391,-0.42969 0,-0.68359 0.15625,-1.3672 0.17578,-0.68359 0.29297,-1.3086 0.60547,-3.0859 1.25,-5.7812 0.66406,-2.6953 1.1914,-5.3516 0.52734,-2.6562 0.85938,-5.4688 0.35156,-2.832 0.35156,-6.1719 0,-0.07813 -0.01953,-0.35156 0,-0.29297 0,-0.60547 0,-0.33203 -0.01953,-0.60547 0,-0.27344 0,-0.37109 0,-0.64453 0.15625,-1.2695 0.17578,-0.625 0.48828,-1.1133 0.3125,-0.50781 0.72266,-0.82031 0.42969,-0.3125 0.9375,-0.3125 0.21484,0 0.42969,0.23438 0.21484,0.21484 0.39062,0.60547 0.17578,0.37109 0.27344,0.89844 0.11719,0.52734 0.11719,1.1328 0,1.0156 -0.11719,2.3242 -0.11719,1.3086 -0.29297,2.6562 -0.15625,1.3281 -0.33203,2.5391 -0.17578,1.2109 -0.27344,2.0312 0.76172,-1.7188 1.7578,-3.2812 1.0156,-1.5625 2.1094,-2.8906 1.0938,-1.3281 2.2266,-2.3828 1.1523,-1.0742 2.207,-1.8359 1.0547,-0.76172 1.9727,-1.1523 0.91796,-0.41016 1.5625,-0.41016 0.8789,0 1.6406,0.35156 0.78125,0.33203 1.3477,0.89844 0.58593,0.54688 0.89843,1.2695 0.33204,0.70312 0.33204,1.4453 z m -3.2031,1.8164 q 0,-0.85938 -0.19531,-1.3867 -0.19531,-0.52732 -0.46875,-0.80078 -0.27344,-0.29297 -0.58594,-0.39062 -0.29297,-0.09766 -0.48828,-0.09766 -0.78125,0 -1.7969,0.70312 -1.0156,0.68359 -2.1094,1.8164 -1.0938,1.1133 -2.1875,2.5391 -1.0937,1.4258 -2.0312,2.8711 -0.23438,0.37109 -0.625,0.99609 -0.37109,0.625 -0.72266,1.3086 -0.35156,0.66406 -0.60547,1.2695 -0.25391,0.60547 -0.25391,0.91797 0,0.17578 0.15625,0.44922 0.15625,0.27344 0.44922,0.54688 0.3125,0.25391 0.76172,0.44922 0.46875,0.19531 1.0742,0.19531 0.82031,0 1.8555,-0.48828 1.0352,-0.50781 2.0898,-1.3477 1.0742,-0.85938 2.0898,-1.9922 1.0352,-1.1328 1.8164,-2.3828 0.80078,-1.2695 1.2891,-2.5977 0.48832,-1.3282 0.48828,-2.5781 z"
         id="path945"
         inkscape:connector-curvature="0"
         style="fill:#ffffff" />
    </g>
  </g>
  <g
     aria-label="Inn's"
     transform="matrix(0.26458333,0,0,0.26458333,2.7804876,1.629941)"
     style="font-style:normal;font-weight:normal;font-size:40px;line-height:1.25;font-family:sans-serif;letter-spacing:0px;word-spacing:0px;fill:#ffffff;fill-opacity:1;stroke:none"
     id="flowRoot5290">
    <path
       d="M 17.058594,100.18267 H 5.5742187 V 97.213916 H 9.3828125 V 74.069385 H 5.5742187 v -2.96875 H 17.058594 v 2.96875 H 13.25 v 23.144531 h 3.808594 z"
       style="fill:#ffffff"
       id="path5298" />
    <path
       d="M 41.628906,100.18267 H 37.957031 V 87.760791 q 0,-1.503906 -0.175781,-2.8125 -0.175781,-1.328125 -0.644531,-2.070313 -0.488282,-0.820312 -1.40625,-1.210937 -0.917969,-0.410156 -2.382813,-0.410156 -1.503906,0 -3.144531,0.742187 -1.640625,0.742188 -3.144531,1.894531 V 100.18267 H 23.386719 V 78.36626 h 3.671875 v 2.421875 q 1.71875,-1.425782 3.554687,-2.226563 1.835938,-0.800781 3.769531,-0.800781 3.535157,0 5.390625,2.128906 1.855469,2.128906 1.855469,6.132813 z"
       style="fill:#ffffff"
       id="path5300" />
    <path
       d="M 66.941406,100.18267 H 63.269531 V 87.760791 q 0,-1.503906 -0.175781,-2.8125 -0.175781,-1.328125 -0.644531,-2.070313 -0.488282,-0.820312 -1.40625,-1.210937 -0.917969,-0.410156 -2.382813,-0.410156 -1.503906,0 -3.144531,0.742187 Q 53.875,82.74126 52.371094,83.893603 V 100.18267 H 48.699219 V 78.36626 h 3.671875 v 2.421875 q 1.71875,-1.425782 3.554687,-2.226563 1.835938,-0.800781 3.769531,-0.800781 3.535157,0 5.390625,2.128906 1.855469,2.128906 1.855469,6.132813 z"
       style="fill:#ffffff"
       id="path5302" />
    <path
       d="m 77.9375,69.792041 -0.839844,11.308594 h -2.65625 L 73.601562,69.792041 Z"
       style="fill:#ffffff"
       id="path5304" />
    <path
       d="m 100.37891,93.893603 q 0,2.988282 -2.480473,4.902344 -2.460937,1.914063 -6.738281,1.914063 -2.421875,0 -4.453125,-0.56641 -2.011719,-0.585934 -3.378906,-1.269528 v -4.121094 h 0.195312 q 1.738282,1.308594 3.867188,2.089844 2.128906,0.761719 4.082031,0.761719 2.421875,0 3.789063,-0.78125 1.367187,-0.78125 1.367187,-2.460938 0,-1.289062 -0.742187,-1.953125 -0.742188,-0.664062 -2.851563,-1.132812 -0.78125,-0.175781 -2.050781,-0.410156 -1.25,-0.234375 -2.285156,-0.507813 -2.871094,-0.761719 -4.082032,-2.226562 -1.191406,-1.484375 -1.191406,-3.632813 0,-1.347656 0.546875,-2.539062 0.566406,-1.191407 1.699219,-2.128907 1.09375,-0.917968 2.773437,-1.445312 1.699219,-0.546875 3.789063,-0.546875 1.953125,0 3.945312,0.488281 2.011719,0.46875 3.339844,1.152344 v 3.925781 h -0.195312 q -1.40625,-1.035156 -3.417969,-1.738281 -2.011719,-0.722656 -3.945313,-0.722656 -2.011718,0 -3.398437,0.78125 -1.386719,0.761718 -1.386719,2.285156 0,1.347656 0.839844,2.03125 0.820312,0.683594 2.65625,1.113281 1.015625,0.234375 2.265625,0.46875 1.269531,0.234375 2.109375,0.429688 2.558594,0.585937 3.945312,2.011718 1.386723,1.445313 1.386723,3.828125 z"
       style="fill:#ffffff"
       id="path5306" />
  </g>
</svg>
